<?xml version="1.0" standalone="no"?>
<!DOCTYPE svg PUBLIC "-//W3C//DTD SVG 20010904//EN"
 "http://www.w3.org/TR/2001/REC-SVG-20010904/DTD/svg10.dtd">
<svg version="1.0" xmlns="http://www.w3.org/2000/svg"
 width="700.000000pt" height="700.000000pt" viewBox="0 0 700.000000 700.000000"
 preserveAspectRatio="xMidYMid meet">
<metadata>
Created by potrace 1.11, written by Peter Selinger 2001-2013
</metadata>
<g transform="translate(0.000000,700.000000) scale(0.100000,-0.100000)"
fill="#000000" stroke="none">
<path d="M3565 6893 c0 -98 -6 -192 -20 -313 -24 -219 -142 -546 -261 -724
-68 -103 -137 -188 -143 -177 -4 6 -18 8 -31 6 -14 -3 -43 -8 -65 -11 -48 -6
-72 -10 -145 -24 -30 -6 -66 -13 -80 -16 -95 -18 -310 -90 -445 -149 -204 -90
-409 -214 -555 -334 -91 -75 -234 -214 -287 -278 -21 -26 -45 -54 -55 -64 -33
-34 -166 -236 -214 -324 -262 -482 -340 -1028 -229 -1585 21 -106 21 -105 49
-205 64 -231 167 -464 289 -653 l47 -72 38 6 c37 6 39 5 94 -63 30 -37 86 -99
124 -137 l69 -70 5 -852 5 -852 106 101 c91 87 219 209 409 387 25 24 108 102
185 175 77 73 178 168 224 211 46 43 117 111 157 149 45 43 80 69 91 67 10 -1
68 -12 128 -23 l110 -21 342 -341 c189 -188 358 -350 375 -359 65 -35 128 -12
159 56 33 75 27 83 -261 370 -143 143 -259 261 -257 262 1 1 36 4 77 8 41 3
132 16 202 27 l127 22 366 -364 c201 -200 380 -373 398 -383 84 -49 183 29
169 134 -2 17 -105 126 -333 353 -181 181 -329 332 -329 336 0 4 30 18 66 31
98 34 316 147 424 219 400 267 684 606 875 1046 49 112 112 324 135 450 5 33
12 70 14 82 3 12 7 50 11 85 3 35 8 81 10 103 10 94 2 396 -11 416 -3 5 -1 9
4 9 19 0 -3 232 -35 355 -8 33 -16 67 -18 75 -21 103 -134 354 -221 493 -43
70 -44 72 -22 75 173 24 359 81 491 150 69 36 87 50 87 67 0 31 -25 108 -53
160 -6 11 -16 30 -22 42 -17 32 -75 94 -117 125 -70 53 -207 93 -330 97 -24 1
-27 6 -33 49 -18 125 -142 509 -216 668 -28 61 -125 230 -139 244 -3 3 -31 40
-62 82 -75 100 -221 247 -326 326 -307 234 -644 357 -1032 377 l-115 6 0 -108z"/>
</g>
</svg>
